<mxfile host="app.diagrams.net" modified="2024-06-21T04:02:07.827Z" agent="Mozilla/5.0 (X11; Ubuntu; Linux x86_64; rv:126.0) Gecko/20100101 Firefox/126.0" etag="u3PWLOSCmcGD7FwB3Q6h" version="24.6.0" type="github">
  <diagram name="Page-1" id="UpYlr5SDMnZ8a_nCScI9">
    <mxGraphModel dx="3587" dy="2035" grid="1" gridSize="10" guides="1" tooltips="1" connect="1" arrows="1" fold="1" page="1" pageScale="1" pageWidth="850" pageHeight="1100" math="0" shadow="0">
      <root>
        <mxCell id="0" />
        <mxCell id="1" parent="0" />
        <mxCell id="yXjf_DAoQnlipOI_uSRa-1" value="" style="rounded=0;whiteSpace=wrap;html=1;fillColor=#E6E6E6;" parent="1" vertex="1">
          <mxGeometry x="-1200" width="160" height="280" as="geometry" />
        </mxCell>
        <mxCell id="yXjf_DAoQnlipOI_uSRa-2" value="" style="rounded=0;whiteSpace=wrap;html=1;" parent="1" vertex="1">
          <mxGeometry x="-1180" y="50" width="120" height="100" as="geometry" />
        </mxCell>
        <mxCell id="yXjf_DAoQnlipOI_uSRa-3" value="" style="rounded=0;whiteSpace=wrap;html=1;" parent="1" vertex="1">
          <mxGeometry x="-1180" y="160" width="120" height="100" as="geometry" />
        </mxCell>
        <mxCell id="yXjf_DAoQnlipOI_uSRa-4" value="" style="rounded=0;whiteSpace=wrap;html=1;fillColor=#E6E6E6;" parent="1" vertex="1">
          <mxGeometry x="258" y="-131" width="920" height="962" as="geometry" />
        </mxCell>
        <mxCell id="yXjf_DAoQnlipOI_uSRa-5" value="" style="verticalLabelPosition=middle;verticalAlign=middle;html=1;shape=trapezoid;perimeter=trapezoidPerimeter;whiteSpace=wrap;size=0.23;arcSize=10;flipV=1;labelPosition=center;align=center;rotation=-90;" parent="1" vertex="1">
          <mxGeometry x="820" y="320" width="100" height="60" as="geometry" />
        </mxCell>
        <mxCell id="yXjf_DAoQnlipOI_uSRa-10" value="&lt;font style=&quot;font-size: 18px;&quot;&gt;&lt;b&gt;Program Counter&lt;/b&gt;&lt;/font&gt;" style="rounded=0;whiteSpace=wrap;html=1;" parent="1" vertex="1">
          <mxGeometry x="290" y="-100" width="190" height="80" as="geometry" />
        </mxCell>
        <mxCell id="bWer3pY09_kFjaxrSwIU-23" style="edgeStyle=orthogonalEdgeStyle;rounded=0;orthogonalLoop=1;jettySize=auto;html=1;exitX=1;exitY=0.5;exitDx=0;exitDy=0;entryX=0.909;entryY=1.011;entryDx=0;entryDy=0;entryPerimeter=0;" parent="1" target="8Gte9jZPgztsGGZdeEs2-76" edge="1">
          <mxGeometry relative="1" as="geometry">
            <mxPoint x="900" y="365" as="sourcePoint" />
            <mxPoint x="595" y="639" as="targetPoint" />
            <Array as="points">
              <mxPoint x="920" y="365" />
              <mxPoint x="920" y="445" />
              <mxPoint x="760" y="445" />
              <mxPoint x="760" y="650" />
              <mxPoint x="590" y="650" />
            </Array>
          </mxGeometry>
        </mxCell>
        <mxCell id="yXjf_DAoQnlipOI_uSRa-32" value="&lt;font style=&quot;font-size: 16px;&quot;&gt;&lt;b style=&quot;&quot;&gt;ALU&lt;/b&gt;&lt;/font&gt;" style="text;html=1;align=center;verticalAlign=middle;whiteSpace=wrap;rounded=0;" parent="1" vertex="1">
          <mxGeometry x="840" y="335" width="60" height="30" as="geometry" />
        </mxCell>
        <mxCell id="yXjf_DAoQnlipOI_uSRa-33" value="&lt;font style=&quot;font-size: 18px;&quot;&gt;&lt;b&gt;Memory&lt;/b&gt;&lt;/font&gt;" style="text;html=1;align=center;verticalAlign=middle;whiteSpace=wrap;rounded=0;" parent="1" vertex="1">
          <mxGeometry x="-1150" y="10" width="60" height="30" as="geometry" />
        </mxCell>
        <mxCell id="yXjf_DAoQnlipOI_uSRa-34" value="&lt;font style=&quot;font-size: 16px;&quot;&gt;&lt;b&gt;Program&lt;/b&gt;&lt;/font&gt;" style="text;html=1;align=center;verticalAlign=middle;whiteSpace=wrap;rounded=0;" parent="1" vertex="1">
          <mxGeometry x="-1150" y="75" width="60" height="30" as="geometry" />
        </mxCell>
        <mxCell id="yXjf_DAoQnlipOI_uSRa-35" value="&lt;font style=&quot;font-size: 16px;&quot;&gt;&lt;b&gt;Data&lt;/b&gt;&lt;/font&gt;" style="text;html=1;align=center;verticalAlign=middle;whiteSpace=wrap;rounded=0;" parent="1" vertex="1">
          <mxGeometry x="-1150" y="186.5" width="60" height="30" as="geometry" />
        </mxCell>
        <mxCell id="yXjf_DAoQnlipOI_uSRa-40" value="" style="endArrow=classic;html=1;rounded=0;entryX=-0.004;entryY=0.711;entryDx=0;entryDy=0;entryPerimeter=0;" parent="1" edge="1">
          <mxGeometry y="15" width="50" height="50" relative="1" as="geometry">
            <mxPoint x="40" y="140" as="sourcePoint" />
            <mxPoint x="340" y="136.38500000000005" as="targetPoint" />
            <mxPoint as="offset" />
          </mxGeometry>
        </mxCell>
        <mxCell id="yXjf_DAoQnlipOI_uSRa-41" value="&lt;font style=&quot;font-size: 36px;&quot;&gt;&lt;b style=&quot;&quot;&gt;CPU&lt;/b&gt;&lt;/font&gt;" style="text;html=1;align=center;verticalAlign=middle;whiteSpace=wrap;rounded=0;" parent="1" vertex="1">
          <mxGeometry x="724.5" y="-115" width="60" height="30" as="geometry" />
        </mxCell>
        <mxCell id="yXjf_DAoQnlipOI_uSRa-46" value="" style="endArrow=classic;html=1;rounded=0;exitX=0.59;exitY=1.03;exitDx=0;exitDy=0;exitPerimeter=0;entryX=0.5;entryY=0;entryDx=0;entryDy=0;" parent="1" edge="1">
          <mxGeometry width="50" height="50" relative="1" as="geometry">
            <mxPoint x="564.59" y="157.25" as="sourcePoint" />
            <mxPoint x="565.39" y="290" as="targetPoint" />
            <Array as="points">
              <mxPoint x="565.39" y="235" />
            </Array>
          </mxGeometry>
        </mxCell>
        <mxCell id="RlM1xWc07QcsKekBhpMz-2" style="edgeStyle=orthogonalEdgeStyle;rounded=0;orthogonalLoop=1;jettySize=auto;html=1;entryX=1;entryY=1;entryDx=0;entryDy=0;exitX=0.997;exitY=0.902;exitDx=0;exitDy=0;exitPerimeter=0;" parent="1" source="yXjf_DAoQnlipOI_uSRa-6" target="yXjf_DAoQnlipOI_uSRa-5" edge="1">
          <mxGeometry relative="1" as="geometry" />
        </mxCell>
        <mxCell id="yXjf_DAoQnlipOI_uSRa-47" value="RegEnableWrite" style="text;html=1;align=center;verticalAlign=middle;whiteSpace=wrap;rounded=0;rotation=90;" parent="1" vertex="1">
          <mxGeometry x="543" y="190" width="60" height="30" as="geometry" />
        </mxCell>
        <mxCell id="yXjf_DAoQnlipOI_uSRa-48" value="" style="endArrow=classic;html=1;rounded=0;exitX=0.012;exitY=0.098;exitDx=0;exitDy=0;exitPerimeter=0;entryX=-0.001;entryY=0.841;entryDx=0;entryDy=0;entryPerimeter=0;" parent="1" target="yXjf_DAoQnlipOI_uSRa-29" edge="1">
          <mxGeometry width="50" height="50" relative="1" as="geometry">
            <mxPoint x="379.05999999999995" y="160.71600000000012" as="sourcePoint" />
            <mxPoint x="458" y="516.8" as="targetPoint" />
            <Array as="points">
              <mxPoint x="379" y="517" />
            </Array>
          </mxGeometry>
        </mxCell>
        <mxCell id="yXjf_DAoQnlipOI_uSRa-49" value="ReadRegAddress2 [4:0]" style="text;html=1;align=center;verticalAlign=middle;whiteSpace=wrap;rounded=0;rotation=90;" parent="1" vertex="1">
          <mxGeometry x="323.5" y="221.5" width="131" height="30" as="geometry" />
        </mxCell>
        <mxCell id="yXjf_DAoQnlipOI_uSRa-50" value="" style="endArrow=classic;html=1;rounded=0;exitX=0.25;exitY=1;exitDx=0;exitDy=0;entryX=-0.001;entryY=0.592;entryDx=0;entryDy=0;entryPerimeter=0;" parent="1" target="yXjf_DAoQnlipOI_uSRa-29" edge="1">
          <mxGeometry width="50" height="50" relative="1" as="geometry">
            <mxPoint x="400" y="160" as="sourcePoint" />
            <mxPoint x="458" y="450.91999999999985" as="targetPoint" />
            <Array as="points">
              <mxPoint x="399" y="449" />
            </Array>
          </mxGeometry>
        </mxCell>
        <mxCell id="yXjf_DAoQnlipOI_uSRa-51" value="ReadRegAddress1 [4:0]" style="text;html=1;align=center;verticalAlign=middle;whiteSpace=wrap;rounded=0;rotation=90;" parent="1" vertex="1">
          <mxGeometry x="343.5" y="221.5" width="131" height="30" as="geometry" />
        </mxCell>
        <mxCell id="yXjf_DAoQnlipOI_uSRa-52" value="" style="endArrow=classic;html=1;rounded=0;exitX=0.3;exitY=1.001;exitDx=0;exitDy=0;entryX=-0.008;entryY=0.344;entryDx=0;entryDy=0;entryPerimeter=0;exitPerimeter=0;" parent="1" target="yXjf_DAoQnlipOI_uSRa-29" edge="1">
          <mxGeometry width="50" height="50" relative="1" as="geometry">
            <mxPoint x="418.99999999999955" y="160.07499999999982" as="sourcePoint" />
            <mxPoint x="454.25" y="382.6099999999999" as="targetPoint" />
            <Array as="points">
              <mxPoint x="419" y="382" />
            </Array>
          </mxGeometry>
        </mxCell>
        <mxCell id="yXjf_DAoQnlipOI_uSRa-53" value="WriteRegAddress [4:0]" style="text;html=1;align=center;verticalAlign=middle;whiteSpace=wrap;rounded=0;rotation=90;" parent="1" vertex="1">
          <mxGeometry x="366.5" y="220.5" width="129" height="30" as="geometry" />
        </mxCell>
        <mxCell id="yXjf_DAoQnlipOI_uSRa-58" value="" style="endArrow=classic;html=1;rounded=0;exitX=0.923;exitY=1.03;exitDx=0;exitDy=0;exitPerimeter=0;entryX=1;entryY=0.75;entryDx=0;entryDy=0;" parent="1" source="yXjf_DAoQnlipOI_uSRa-7" target="yXjf_DAoQnlipOI_uSRa-5" edge="1">
          <mxGeometry width="50" height="50" relative="1" as="geometry">
            <mxPoint x="700" y="270" as="sourcePoint" />
            <mxPoint x="891" y="290" as="targetPoint" />
            <Array as="points">
              <mxPoint x="710" y="180" />
              <mxPoint x="880" y="180" />
            </Array>
          </mxGeometry>
        </mxCell>
        <mxCell id="yXjf_DAoQnlipOI_uSRa-59" value="ALU Op [2:0]" style="text;html=1;align=center;verticalAlign=middle;whiteSpace=wrap;rounded=0;" parent="1" vertex="1">
          <mxGeometry x="730" y="158" width="120" height="30" as="geometry" />
        </mxCell>
        <mxCell id="yXjf_DAoQnlipOI_uSRa-60" value="&#xa;&lt;span style=&quot;color: rgb(0, 0, 0); font-family: Helvetica; font-size: 11px; font-style: normal; font-variant-ligatures: normal; font-variant-caps: normal; font-weight: 400; letter-spacing: normal; orphans: 2; text-align: center; text-indent: 0px; text-transform: none; widows: 2; word-spacing: 0px; -webkit-text-stroke-width: 0px; white-space: nowrap; background-color: rgb(255, 255, 255); text-decoration-thickness: initial; text-decoration-style: initial; text-decoration-color: initial; display: inline !important; float: none;&quot;&gt;Instruction [31:0]&lt;/span&gt;&#xa;&#xa;" style="text;html=1;align=center;verticalAlign=middle;whiteSpace=wrap;rounded=0;" parent="1" vertex="1">
          <mxGeometry x="140" y="115" width="100" height="30" as="geometry" />
        </mxCell>
        <mxCell id="yXjf_DAoQnlipOI_uSRa-65" value="&lt;font style=&quot;font-size: 16px;&quot;&gt;&lt;b style=&quot;&quot;&gt;Memory Handler&lt;/b&gt;&lt;/font&gt;" style="rounded=0;whiteSpace=wrap;html=1;" parent="1" vertex="1">
          <mxGeometry x="1020" y="490" width="120" height="90" as="geometry" />
        </mxCell>
        <mxCell id="yXjf_DAoQnlipOI_uSRa-66" value="" style="endArrow=classic;html=1;rounded=0;exitX=0.99;exitY=0.189;exitDx=0;exitDy=0;entryX=0.75;entryY=0;entryDx=0;entryDy=0;exitPerimeter=0;" parent="1" source="yXjf_DAoQnlipOI_uSRa-7" target="yXjf_DAoQnlipOI_uSRa-65" edge="1">
          <mxGeometry width="50" height="50" relative="1" as="geometry">
            <mxPoint x="840" y="430" as="sourcePoint" />
            <mxPoint x="890" y="380" as="targetPoint" />
            <Array as="points">
              <mxPoint x="1110" y="100" />
            </Array>
          </mxGeometry>
        </mxCell>
        <mxCell id="yXjf_DAoQnlipOI_uSRa-67" value="MemEnableRead" style="text;html=1;align=center;verticalAlign=middle;whiteSpace=wrap;rounded=0;" parent="1" vertex="1">
          <mxGeometry x="738" y="75" width="92" height="27" as="geometry" />
        </mxCell>
        <mxCell id="yXjf_DAoQnlipOI_uSRa-70" value="" style="endArrow=classic;html=1;rounded=0;exitX=0.5;exitY=1;exitDx=0;exitDy=0;" parent="1" source="yXjf_DAoQnlipOI_uSRa-65" edge="1">
          <mxGeometry width="50" height="50" relative="1" as="geometry">
            <mxPoint x="1070" y="600" as="sourcePoint" />
            <mxPoint x="40" y="226" as="targetPoint" />
            <Array as="points">
              <mxPoint x="1080" y="790" />
              <mxPoint x="240" y="790" />
              <mxPoint x="240" y="225" />
            </Array>
          </mxGeometry>
        </mxCell>
        <mxCell id="yXjf_DAoQnlipOI_uSRa-71" value="" style="endArrow=classic;html=1;rounded=0;exitX=0.831;exitY=1.012;exitDx=0;exitDy=0;exitPerimeter=0;entryX=0.5;entryY=0;entryDx=0;entryDy=0;" parent="1" source="yXjf_DAoQnlipOI_uSRa-7" target="8Gte9jZPgztsGGZdeEs2-83" edge="1">
          <mxGeometry width="50" height="50" relative="1" as="geometry">
            <mxPoint x="770" y="280" as="sourcePoint" />
            <mxPoint x="820" y="230" as="targetPoint" />
            <Array as="points">
              <mxPoint x="700" y="200" />
              <mxPoint x="807" y="200" />
            </Array>
          </mxGeometry>
        </mxCell>
        <mxCell id="yXjf_DAoQnlipOI_uSRa-72" value="ALUSrc" style="text;html=1;align=center;verticalAlign=middle;whiteSpace=wrap;rounded=0;" parent="1" vertex="1">
          <mxGeometry x="698" y="180" width="122" height="27" as="geometry" />
        </mxCell>
        <mxCell id="yXjf_DAoQnlipOI_uSRa-76" value="" style="endArrow=classic;html=1;rounded=0;exitX=0.994;exitY=0.076;exitDx=0;exitDy=0;exitPerimeter=0;entryX=0.89;entryY=1.005;entryDx=0;entryDy=0;entryPerimeter=0;" parent="1" edge="1">
          <mxGeometry width="50" height="50" relative="1" as="geometry">
            <mxPoint x="615.0999999999999" y="314.52" as="sourcePoint" />
            <mxPoint x="839.7000000000003" y="315.0000000000001" as="targetPoint" />
          </mxGeometry>
        </mxCell>
        <mxCell id="yXjf_DAoQnlipOI_uSRa-77" value="ReadRegData1 [31:0]" style="text;html=1;align=center;verticalAlign=middle;whiteSpace=wrap;rounded=0;" parent="1" vertex="1">
          <mxGeometry x="675" y="291" width="127" height="30" as="geometry" />
        </mxCell>
        <mxCell id="yXjf_DAoQnlipOI_uSRa-79" value="" style="endArrow=classic;html=1;rounded=0;exitX=1.002;exitY=0.365;exitDx=0;exitDy=0;exitPerimeter=0;entryX=0;entryY=0.75;entryDx=0;entryDy=0;" parent="1" source="yXjf_DAoQnlipOI_uSRa-29" target="8Gte9jZPgztsGGZdeEs2-83" edge="1">
          <mxGeometry width="50" height="50" relative="1" as="geometry">
            <mxPoint x="616.2999999999997" y="367.41999999999996" as="sourcePoint" />
            <mxPoint x="839.5800000000004" y="367.30000000000007" as="targetPoint" />
          </mxGeometry>
        </mxCell>
        <mxCell id="yXjf_DAoQnlipOI_uSRa-80" value="ReadRegData2 [31:0]" style="text;html=1;align=center;verticalAlign=middle;whiteSpace=wrap;rounded=0;" parent="1" vertex="1">
          <mxGeometry x="670" y="363" width="119" height="30" as="geometry" />
        </mxCell>
        <mxCell id="HdYWClEYyVrbTFhswKsE-1" value="" style="endArrow=classic;html=1;rounded=0;entryX=-0.01;entryY=0.313;entryDx=0;entryDy=0;exitX=0;exitY=1;exitDx=0;exitDy=0;entryPerimeter=0;" parent="1" edge="1">
          <mxGeometry width="50" height="50" relative="1" as="geometry">
            <mxPoint x="515.4" y="152.22" as="sourcePoint" />
            <mxPoint x="790.0000000000001" y="355" as="targetPoint" />
            <Array as="points">
              <mxPoint x="515.4" y="262.22" />
              <mxPoint x="670.4" y="262.22" />
              <mxPoint x="670" y="355" />
            </Array>
          </mxGeometry>
        </mxCell>
        <mxCell id="yXjf_DAoQnlipOI_uSRa-29" value="" style="rounded=0;whiteSpace=wrap;html=1;" parent="1" vertex="1">
          <mxGeometry x="490" y="290" width="150" height="270" as="geometry" />
        </mxCell>
        <mxCell id="yXjf_DAoQnlipOI_uSRa-11" value="x0" style="rounded=0;whiteSpace=wrap;html=1;" parent="1" vertex="1">
          <mxGeometry x="504.99" y="335" width="120" height="40" as="geometry" />
        </mxCell>
        <mxCell id="yXjf_DAoQnlipOI_uSRa-12" value="x1" style="rounded=0;whiteSpace=wrap;html=1;" parent="1" vertex="1">
          <mxGeometry x="504.99" y="387" width="120" height="40" as="geometry" />
        </mxCell>
        <mxCell id="yXjf_DAoQnlipOI_uSRa-13" value="x2" style="rounded=0;whiteSpace=wrap;html=1;" parent="1" vertex="1">
          <mxGeometry x="504.99" y="439" width="120" height="40" as="geometry" />
        </mxCell>
        <mxCell id="yXjf_DAoQnlipOI_uSRa-14" value="x3" style="rounded=0;whiteSpace=wrap;html=1;" parent="1" vertex="1">
          <mxGeometry x="504.99" y="490" width="120" height="40" as="geometry" />
        </mxCell>
        <mxCell id="yXjf_DAoQnlipOI_uSRa-31" value="&lt;font style=&quot;font-size: 16px;&quot;&gt;&lt;b style=&quot;&quot;&gt;Registers (31 regs)&lt;/b&gt;&lt;/font&gt;" style="text;html=1;align=center;verticalAlign=middle;whiteSpace=wrap;rounded=0;" parent="1" vertex="1">
          <mxGeometry x="510" y="295" width="110" height="30" as="geometry" />
        </mxCell>
        <mxCell id="yXjf_DAoQnlipOI_uSRa-39" value="..." style="text;html=1;align=center;verticalAlign=middle;whiteSpace=wrap;rounded=0;" parent="1" vertex="1">
          <mxGeometry x="535" y="520" width="60" height="30" as="geometry" />
        </mxCell>
        <mxCell id="HdYWClEYyVrbTFhswKsE-3" value="Imm [31:0]" style="text;html=1;align=center;verticalAlign=middle;whiteSpace=wrap;rounded=0;rotation=90;" parent="1" vertex="1">
          <mxGeometry x="474.5" y="198.5" width="110" height="30" as="geometry" />
        </mxCell>
        <mxCell id="8Gte9jZPgztsGGZdeEs2-6" value="" style="endArrow=classic;html=1;rounded=0;exitX=0.5;exitY=1;exitDx=0;exitDy=0;entryX=0.004;entryY=0.336;entryDx=0;entryDy=0;entryPerimeter=0;" parent="1" target="yXjf_DAoQnlipOI_uSRa-65" edge="1">
          <mxGeometry width="50" height="50" relative="1" as="geometry">
            <mxPoint x="670" y="393" as="sourcePoint" />
            <mxPoint x="1017.2399999999998" y="520.4199999999998" as="targetPoint" />
            <Array as="points">
              <mxPoint x="670" y="459" />
              <mxPoint x="670" y="519" />
            </Array>
          </mxGeometry>
        </mxCell>
        <mxCell id="8Gte9jZPgztsGGZdeEs2-9" value="Output [31:0]" style="text;html=1;align=center;verticalAlign=middle;whiteSpace=wrap;rounded=0;rotation=90;" parent="1" vertex="1">
          <mxGeometry x="895" y="392" width="90" height="30" as="geometry" />
        </mxCell>
        <mxCell id="8Gte9jZPgztsGGZdeEs2-12" value="" style="endArrow=classic;html=1;rounded=0;exitX=0.048;exitY=1.003;exitDx=0;exitDy=0;exitPerimeter=0;entryX=0.75;entryY=0.2;entryDx=0;entryDy=0;entryPerimeter=0;" parent="1" target="8Gte9jZPgztsGGZdeEs2-76" edge="1">
          <mxGeometry width="50" height="50" relative="1" as="geometry">
            <mxPoint x="650.76" y="145.18000000000006" as="sourcePoint" />
            <mxPoint x="595" y="605.8235294117646" as="targetPoint" />
            <Array as="points">
              <mxPoint x="652" y="260" />
              <mxPoint x="650" y="600" />
            </Array>
          </mxGeometry>
        </mxCell>
        <mxCell id="8Gte9jZPgztsGGZdeEs2-13" value="RegWriteSrc [1:0]" style="text;html=1;align=center;verticalAlign=middle;whiteSpace=wrap;rounded=0;rotation=90;" parent="1" vertex="1">
          <mxGeometry x="605.5" y="195" width="109" height="30" as="geometry" />
        </mxCell>
        <mxCell id="yXjf_DAoQnlipOI_uSRa-7" value="Control Unit" style="rounded=0;whiteSpace=wrap;html=1;" parent="1" vertex="1">
          <mxGeometry x="600" y="85" width="120" height="75" as="geometry" />
        </mxCell>
        <mxCell id="8Gte9jZPgztsGGZdeEs2-23" value="" style="endArrow=classic;html=1;rounded=0;exitX=0.009;exitY=0.913;exitDx=0;exitDy=0;exitPerimeter=0;entryX=0.25;entryY=0;entryDx=0;entryDy=0;" parent="1" source="8Gte9jZPgztsGGZdeEs2-24" target="yXjf_DAoQnlipOI_uSRa-65" edge="1">
          <mxGeometry width="50" height="50" relative="1" as="geometry">
            <mxPoint x="447" y="340" as="sourcePoint" />
            <mxPoint x="1000" y="553" as="targetPoint" />
            <Array as="points">
              <mxPoint x="349" y="710" />
              <mxPoint x="820" y="710" />
              <mxPoint x="820" y="470" />
              <mxPoint x="980" y="470" />
              <mxPoint x="980" y="360" />
              <mxPoint x="1050" y="360" />
              <mxPoint x="1050" y="410" />
              <mxPoint x="1050" y="470" />
            </Array>
          </mxGeometry>
        </mxCell>
        <mxCell id="8Gte9jZPgztsGGZdeEs2-24" value="MemAddress[4:0]" style="text;html=1;align=center;verticalAlign=middle;whiteSpace=wrap;rounded=0;rotation=90;" parent="1" vertex="1">
          <mxGeometry x="297.25" y="205.75" width="123.5" height="30" as="geometry" />
        </mxCell>
        <mxCell id="8Gte9jZPgztsGGZdeEs2-35" value="" style="endArrow=classic;html=1;rounded=0;entryX=0.62;entryY=0.978;entryDx=0;entryDy=0;entryPerimeter=0;" parent="1" target="yXjf_DAoQnlipOI_uSRa-65" edge="1">
          <mxGeometry width="50" height="50" relative="1" as="geometry">
            <mxPoint x="40" y="240" as="sourcePoint" />
            <mxPoint x="180" y="250" as="targetPoint" />
            <Array as="points">
              <mxPoint x="230" y="240" />
              <mxPoint x="230" y="810" />
              <mxPoint x="1094" y="810" />
            </Array>
          </mxGeometry>
        </mxCell>
        <mxCell id="8Gte9jZPgztsGGZdeEs2-36" value="" style="endArrow=classic;html=1;rounded=0;exitX=0.116;exitY=1.003;exitDx=0;exitDy=0;exitPerimeter=0;entryX=0.002;entryY=0.624;entryDx=0;entryDy=0;entryPerimeter=0;" parent="1" target="8Gte9jZPgztsGGZdeEs2-74" edge="1">
          <mxGeometry width="50" height="50" relative="1" as="geometry">
            <mxPoint x="1033.9199999999996" y="580.27" as="sourcePoint" />
            <mxPoint x="565" y="560" as="targetPoint" />
            <Array as="points">
              <mxPoint x="1034" y="670" />
              <mxPoint x="574" y="670" />
            </Array>
          </mxGeometry>
        </mxCell>
        <mxCell id="8Gte9jZPgztsGGZdeEs2-37" value="WriteToReg" style="text;html=1;align=center;verticalAlign=middle;whiteSpace=wrap;rounded=0;" parent="1" vertex="1">
          <mxGeometry x="935" y="644" width="100" height="30" as="geometry" />
        </mxCell>
        <mxCell id="8Gte9jZPgztsGGZdeEs2-40" value="MemoryAddress [4:0]" style="text;html=1;align=center;verticalAlign=middle;whiteSpace=wrap;rounded=0;rotation=-90;" parent="1" vertex="1">
          <mxGeometry x="1010" y="630" width="120" height="30" as="geometry" />
        </mxCell>
        <mxCell id="8Gte9jZPgztsGGZdeEs2-41" value="MemoryData [4:0]" style="text;html=1;align=center;verticalAlign=middle;whiteSpace=wrap;rounded=0;rotation=90;" parent="1" vertex="1">
          <mxGeometry x="1043" y="630" width="120" height="30" as="geometry" />
        </mxCell>
        <mxCell id="8Gte9jZPgztsGGZdeEs2-42" value="MemAddress [4:0]" style="text;html=1;align=center;verticalAlign=middle;whiteSpace=wrap;rounded=0;rotation=90;" parent="1" vertex="1">
          <mxGeometry x="965" y="410" width="125" height="30" as="geometry" />
        </mxCell>
        <mxCell id="8Gte9jZPgztsGGZdeEs2-44" value="RegData&lt;span style=&quot;color: rgba(0, 0, 0, 0); font-family: monospace; font-size: 0px; text-align: start; text-wrap: nowrap;&quot;&gt;%3CmxGraphModel%3E%3Croot%3E%3CmxCell%20id%3D%220%22%2F%3E%3CmxCell%20id%3D%221%22%20parent%3D%220%22%2F%3E%3CmxCell%20id%3D%222%22%20value%3D%22ReadRegData2%20%5B4%3A0%5D%22%20style%3D%22text%3Bhtml%3D1%3Balign%3Dcenter%3BverticalAlign%3Dmiddle%3BwhiteSpace%3Dwrap%3Brounded%3D0%3B%22%20vertex%3D%221%22%20parent%3D%221%22%3E%3CmxGeometry%20x%3D%22683%22%20y%3D%22344%22%20width%3D%22117%22%20height%3D%2230%22%20as%3D%22geometry%22%2F%3E%3C%2FmxCell%3E%3C%2Froot%3E%3C%2FmxGraphModel%3E&lt;/span&gt;&amp;nbsp;[31&lt;span style=&quot;color: rgba(0, 0, 0, 0); font-family: monospace; font-size: 0px; text-align: start; text-wrap: nowrap;&quot;&gt;%3CmxGraphModel%3E%3Croot%3E%3CmxCell%20id%3D%220%22%2F%3E%3CmxCell%20id%3D%221%22%20parent%3D%220%22%2F%3E%3CmxCell%20id%3D%222%22%20value%3D%22ReadRegData2%20%5B4%3A0%5D%22%20style%3D%22text%3Bhtml%3D1%3Balign%3Dcenter%3BverticalAlign%3Dmiddle%3BwhiteSpace%3Dwrap%3Brounded%3D0%3B%22%20vertex%3D%221%22%20parent%3D%221%22%3E%3CmxGeometry%20x%3D%22683%22%20y%3D%22344%22%20width%3D%22117%22%20height%3D%2230%22%20as%3D%22geometry%22%2F%3E%3C%2FmxCell%3E%3C%2Froot%3E%3C%2FmxGraphModel%3E&lt;/span&gt;:0]" style="text;html=1;align=center;verticalAlign=middle;whiteSpace=wrap;rounded=0;" parent="1" vertex="1">
          <mxGeometry x="848" y="495" width="117" height="30" as="geometry" />
        </mxCell>
        <mxCell id="8Gte9jZPgztsGGZdeEs2-46" value="ALUData [31:0]" style="text;html=1;align=center;verticalAlign=middle;whiteSpace=wrap;rounded=0;" parent="1" vertex="1">
          <mxGeometry x="605.5" y="625" width="85.5" height="30" as="geometry" />
        </mxCell>
        <mxCell id="8Gte9jZPgztsGGZdeEs2-47" value="MemData[31:0]&lt;span style=&quot;color: rgba(0, 0, 0, 0); font-family: monospace; font-size: 0px; text-align: start; text-wrap: nowrap;&quot;&gt;%3CmxGraphModel%3E%3Croot%3E%3CmxCell%20id%3D%220%22%2F%3E%3CmxCell%20id%3D%221%22%20parent%3D%220%22%2F%3E%3CmxCell%20id%3D%222%22%20value%3D%22ALUOut%20%5B4%3A0%5D%22%20style%3D%22text%3Bhtml%3D1%3Balign%3Dcenter%3BverticalAlign%3Dmiddle%3BwhiteSpace%3Dwrap%3Brounded%3D0%3B%22%20vertex%3D%221%22%20parent%3D%221%22%3E%3CmxGeometry%20x%3D%22604.5%22%20y%3D%22565%22%20width%3D%2285.5%22%20height%3D%2230%22%20as%3D%22geometry%22%2F%3E%3C%2FmxCell%3E%3C%2Froot%3E%3C%2FmxGraphModel%3E&lt;/span&gt;" style="text;html=1;align=center;verticalAlign=middle;whiteSpace=wrap;rounded=0;" parent="1" vertex="1">
          <mxGeometry x="605.5" y="647" width="85.5" height="30" as="geometry" />
        </mxCell>
        <mxCell id="8Gte9jZPgztsGGZdeEs2-48" value="ImmData[31:0]&lt;span style=&quot;color: rgba(0, 0, 0, 0); font-family: monospace; font-size: 0px; text-align: start; text-wrap: nowrap;&quot;&gt;%3CmxGraphModel%3E%3Croot%3E%3CmxCell%20id%3D%220%22%2F%3E%3CmxCell%20id%3D%221%22%20parent%3D%220%22%2F%3E%3CmxCell%20id%3D%222%22%20value%3D%22ALUOut%20%5B4%3A0%5D%22%20style%3D%22text%3Bhtml%3D1%3Balign%3Dcenter%3BverticalAlign%3Dmiddle%3BwhiteSpace%3Dwrap%3Brounded%3D0%3B%22%20vertex%3D%221%22%20parent%3D%221%22%3E%3CmxGeometry%20x%3D%22604.5%22%20y%3D%22565%22%20width%3D%2285.5%22%20height%3D%2230%22%20as%3D%22geometry%22%2F%3E%3C%2FmxCell%3E%3C%2Froot%3E%3C%2FmxGraphModel%3E&lt;/span&gt;" style="text;html=1;align=center;verticalAlign=middle;whiteSpace=wrap;rounded=0;" parent="1" vertex="1">
          <mxGeometry x="440" y="614" width="85.5" height="30" as="geometry" />
        </mxCell>
        <mxCell id="8Gte9jZPgztsGGZdeEs2-49" value="" style="endArrow=classic;html=1;rounded=0;exitX=0;exitY=0.5;exitDx=0;exitDy=0;" parent="1" source="yXjf_DAoQnlipOI_uSRa-10" edge="1">
          <mxGeometry width="50" height="50" relative="1" as="geometry">
            <mxPoint x="290" y="-80" as="sourcePoint" />
            <mxPoint x="40" y="110" as="targetPoint" />
            <Array as="points">
              <mxPoint x="210" y="-60" />
              <mxPoint x="120" y="-60" />
              <mxPoint x="120" y="110" />
            </Array>
          </mxGeometry>
        </mxCell>
        <mxCell id="8Gte9jZPgztsGGZdeEs2-50" value="NextInstructionAddress[5:0]" style="text;html=1;align=center;verticalAlign=middle;whiteSpace=wrap;rounded=0;" parent="1" vertex="1">
          <mxGeometry x="150" y="-90" width="60" height="30" as="geometry" />
        </mxCell>
        <mxCell id="8Gte9jZPgztsGGZdeEs2-56" value="" style="endArrow=classic;html=1;rounded=0;exitX=1;exitY=0;exitDx=0;exitDy=0;entryX=1;entryY=0.5;entryDx=0;entryDy=0;" parent="1" edge="1">
          <mxGeometry width="50" height="50" relative="1" as="geometry">
            <mxPoint x="900" y="340" as="sourcePoint" />
            <mxPoint x="480" y="-55.00000000000023" as="targetPoint" />
            <Array as="points">
              <mxPoint x="930" y="340" />
              <mxPoint x="930" y="-55" />
            </Array>
          </mxGeometry>
        </mxCell>
        <mxCell id="8Gte9jZPgztsGGZdeEs2-57" value="condJump" style="text;html=1;align=center;verticalAlign=middle;whiteSpace=wrap;rounded=0;rotation=90;" parent="1" vertex="1">
          <mxGeometry x="910" y="285" width="60" height="30" as="geometry" />
        </mxCell>
        <mxCell id="8Gte9jZPgztsGGZdeEs2-58" value="condJump" style="text;html=1;align=center;verticalAlign=middle;whiteSpace=wrap;rounded=0;rotation=0;" parent="1" vertex="1">
          <mxGeometry x="500" y="-85" width="60" height="30" as="geometry" />
        </mxCell>
        <mxCell id="8Gte9jZPgztsGGZdeEs2-59" value="" style="endArrow=classic;html=1;rounded=0;exitX=0.712;exitY=-0.018;exitDx=0;exitDy=0;entryX=1;entryY=0.75;entryDx=0;entryDy=0;exitPerimeter=0;" parent="1" source="yXjf_DAoQnlipOI_uSRa-6" target="yXjf_DAoQnlipOI_uSRa-10" edge="1">
          <mxGeometry width="50" height="50" relative="1" as="geometry">
            <mxPoint x="411" y="87" as="sourcePoint" />
            <mxPoint x="411" y="-20" as="targetPoint" />
            <Array as="points">
              <mxPoint x="610" y="-40" />
            </Array>
          </mxGeometry>
        </mxCell>
        <mxCell id="8Gte9jZPgztsGGZdeEs2-60" value="forceJump" style="text;html=1;align=center;verticalAlign=middle;whiteSpace=wrap;rounded=0;rotation=0;" parent="1" vertex="1">
          <mxGeometry x="490.75" y="-60" width="78.5" height="30" as="geometry" />
        </mxCell>
        <mxCell id="8Gte9jZPgztsGGZdeEs2-65" value="" style="endArrow=classic;html=1;rounded=0;entryX=0.369;entryY=1;entryDx=0;entryDy=0;entryPerimeter=0;" parent="1" edge="1">
          <mxGeometry width="50" height="50" relative="1" as="geometry">
            <mxPoint x="311" y="-20" as="sourcePoint" />
            <mxPoint x="557.1400000000001" y="623.9999999999998" as="targetPoint" />
            <Array as="points">
              <mxPoint x="311" y="670" />
              <mxPoint x="557" y="670" />
            </Array>
          </mxGeometry>
        </mxCell>
        <mxCell id="8Gte9jZPgztsGGZdeEs2-66" value="PCData[31:0]&lt;span style=&quot;color: rgba(0, 0, 0, 0); font-family: monospace; font-size: 0px; text-align: start; text-wrap: nowrap;&quot;&gt;%3CmxGraphModel%3E%3Croot%3E%3CmxCell%20id%3D%220%22%2F%3E%3CmxCell%20id%3D%221%22%20parent%3D%220%22%2F%3E%3CmxCell%20id%3D%222%22%20value%3D%22ALUOut%20%5B4%3A0%5D%22%20style%3D%22text%3Bhtml%3D1%3Balign%3Dcenter%3BverticalAlign%3Dmiddle%3BwhiteSpace%3Dwrap%3Brounded%3D0%3B%22%20vertex%3D%221%22%20parent%3D%221%22%3E%3CmxGeometry%20x%3D%22604.5%22%20y%3D%22565%22%20width%3D%2285.5%22%20height%3D%2230%22%20as%3D%22geometry%22%2F%3E%3C%2FmxCell%3E%3C%2Froot%3E%3C%2FmxGraphModel%3E&lt;/span&gt;" style="text;html=1;align=center;verticalAlign=middle;whiteSpace=wrap;rounded=0;" parent="1" vertex="1">
          <mxGeometry x="444" y="645" width="85.5" height="30" as="geometry" />
        </mxCell>
        <mxCell id="8Gte9jZPgztsGGZdeEs2-67" value="" style="endArrow=classic;html=1;rounded=0;exitX=0.25;exitY=0;exitDx=0;exitDy=0;entryX=0.288;entryY=0.971;entryDx=0;entryDy=0;entryPerimeter=0;" parent="1" edge="1">
          <mxGeometry width="50" height="50" relative="1" as="geometry">
            <mxPoint x="477" y="86" as="sourcePoint" />
            <mxPoint x="477" y="-21" as="targetPoint" />
          </mxGeometry>
        </mxCell>
        <mxCell id="8Gte9jZPgztsGGZdeEs2-68" value="sendLink" style="text;html=1;align=center;verticalAlign=middle;whiteSpace=wrap;rounded=0;rotation=90;" parent="1" vertex="1">
          <mxGeometry x="447.25" y="14.25" width="78.5" height="30" as="geometry" />
        </mxCell>
        <mxCell id="8Gte9jZPgztsGGZdeEs2-74" value="" style="triangle;whiteSpace=wrap;html=1;rotation=-90;" parent="1" vertex="1">
          <mxGeometry x="545.37" y="565.37" width="39.25" height="76.25" as="geometry" />
        </mxCell>
        <mxCell id="8Gte9jZPgztsGGZdeEs2-75" value="" style="endArrow=classic;html=1;rounded=0;exitX=1;exitY=0.5;exitDx=0;exitDy=0;entryX=0.5;entryY=1;entryDx=0;entryDy=0;" parent="1" source="8Gte9jZPgztsGGZdeEs2-74" target="yXjf_DAoQnlipOI_uSRa-29" edge="1">
          <mxGeometry width="50" height="50" relative="1" as="geometry">
            <mxPoint x="690" y="580" as="sourcePoint" />
            <mxPoint x="740" y="530" as="targetPoint" />
          </mxGeometry>
        </mxCell>
        <mxCell id="8Gte9jZPgztsGGZdeEs2-76" value="&lt;font style=&quot;font-size: 16px;&quot;&gt;&lt;b&gt;Mux&lt;/b&gt;&lt;/font&gt;" style="text;html=1;align=center;verticalAlign=middle;whiteSpace=wrap;rounded=0;" parent="1" vertex="1">
          <mxGeometry x="535" y="594" width="60" height="30" as="geometry" />
        </mxCell>
        <mxCell id="8Gte9jZPgztsGGZdeEs2-77" value="DataWrite[4:0]" style="text;html=1;align=center;verticalAlign=middle;whiteSpace=wrap;rounded=0;" parent="1" vertex="1">
          <mxGeometry x="490" y="560" width="60" height="30" as="geometry" />
        </mxCell>
        <mxCell id="8Gte9jZPgztsGGZdeEs2-83" value="&lt;font style=&quot;font-size: 14px;&quot;&gt;&lt;b style=&quot;&quot;&gt;Mux&lt;/b&gt;&lt;/font&gt;" style="triangle;whiteSpace=wrap;html=1;" parent="1" vertex="1">
          <mxGeometry x="790" y="344" width="40" height="60" as="geometry" />
        </mxCell>
        <mxCell id="8Gte9jZPgztsGGZdeEs2-87" value="ImmOperand [31:0]" style="text;html=1;align=center;verticalAlign=middle;whiteSpace=wrap;rounded=0;rotation=0;" parent="1" vertex="1">
          <mxGeometry x="674.5" y="325" width="110" height="30" as="geometry" />
        </mxCell>
        <mxCell id="8Gte9jZPgztsGGZdeEs2-89" value="" style="ellipse;whiteSpace=wrap;html=1;aspect=fixed;" parent="1" vertex="1">
          <mxGeometry x="665" y="384" width="10" height="10" as="geometry" />
        </mxCell>
        <mxCell id="8Gte9jZPgztsGGZdeEs2-90" value="LinkAddress [5:0]" style="text;html=1;align=center;verticalAlign=middle;whiteSpace=wrap;rounded=0;rotation=90;" parent="1" vertex="1">
          <mxGeometry x="265.19" y="21.68" width="110.13" height="30" as="geometry" />
        </mxCell>
        <mxCell id="RlM1xWc07QcsKekBhpMz-3" style="edgeStyle=orthogonalEdgeStyle;rounded=0;orthogonalLoop=1;jettySize=auto;html=1;exitX=0.043;exitY=0.03;exitDx=0;exitDy=0;exitPerimeter=0;entryX=1;entryY=0.5;entryDx=0;entryDy=0;" parent="1" source="8Gte9jZPgztsGGZdeEs2-13" target="yXjf_DAoQnlipOI_uSRa-5" edge="1">
          <mxGeometry relative="1" as="geometry">
            <mxPoint x="720" y="226.02500000000032" as="sourcePoint" />
            <mxPoint x="870" y="386" as="targetPoint" />
            <Array as="points">
              <mxPoint x="673" y="164" />
              <mxPoint x="673" y="230" />
              <mxPoint x="870" y="230" />
            </Array>
          </mxGeometry>
        </mxCell>
        <mxCell id="RlM1xWc07QcsKekBhpMz-4" value="Opcode [6:0]" style="text;html=1;align=center;verticalAlign=middle;whiteSpace=wrap;rounded=0;" parent="1" vertex="1">
          <mxGeometry x="798" y="135" width="82" height="20" as="geometry" />
        </mxCell>
        <mxCell id="RlM1xWc07QcsKekBhpMz-5" value="Func7 [5:0]" style="text;html=1;align=center;verticalAlign=middle;whiteSpace=wrap;rounded=0;" parent="1" vertex="1">
          <mxGeometry x="700" y="228.5" width="77" height="28.5" as="geometry" />
        </mxCell>
        <mxCell id="8Gte9jZPgztsGGZdeEs2-95" value="" style="endArrow=classic;html=1;rounded=0;entryX=0.5;entryY=0;entryDx=0;entryDy=0;" parent="1" target="yXjf_DAoQnlipOI_uSRa-65" edge="1">
          <mxGeometry width="50" height="50" relative="1" as="geometry">
            <mxPoint x="720" y="114" as="sourcePoint" />
            <mxPoint x="1100" y="490" as="targetPoint" />
            <Array as="points">
              <mxPoint x="1080" y="115" />
            </Array>
          </mxGeometry>
        </mxCell>
        <mxCell id="8Gte9jZPgztsGGZdeEs2-96" value="MemEnableWrite" style="text;html=1;align=center;verticalAlign=middle;whiteSpace=wrap;rounded=0;" parent="1" vertex="1">
          <mxGeometry x="738" y="93" width="92" height="27" as="geometry" />
        </mxCell>
        <mxCell id="8Gte9jZPgztsGGZdeEs2-97" value="" style="endArrow=classic;html=1;rounded=0;exitX=0.941;exitY=0.936;exitDx=0;exitDy=0;entryX=0.066;entryY=1.009;entryDx=0;entryDy=0;entryPerimeter=0;exitPerimeter=0;" parent="1" source="HdYWClEYyVrbTFhswKsE-3" target="8Gte9jZPgztsGGZdeEs2-76" edge="1">
          <mxGeometry width="50" height="50" relative="1" as="geometry">
            <mxPoint x="620" y="340" as="sourcePoint" />
            <mxPoint x="670" y="290" as="targetPoint" />
            <Array as="points">
              <mxPoint x="460" y="262" />
              <mxPoint x="460" y="590" />
              <mxPoint x="410" y="590" />
              <mxPoint x="410" y="640" />
              <mxPoint x="539" y="640" />
            </Array>
          </mxGeometry>
        </mxCell>
        <mxCell id="8Gte9jZPgztsGGZdeEs2-52" value="" style="endArrow=classic;html=1;rounded=0;entryX=0.464;entryY=1.009;entryDx=0;entryDy=0;entryPerimeter=0;" parent="1" target="yXjf_DAoQnlipOI_uSRa-10" edge="1">
          <mxGeometry width="50" height="50" relative="1" as="geometry">
            <mxPoint x="460" y="270" as="sourcePoint" />
            <mxPoint x="540" y="40" as="targetPoint" />
            <Array as="points">
              <mxPoint x="460" y="120" />
              <mxPoint x="378" y="120" />
            </Array>
          </mxGeometry>
        </mxCell>
        <mxCell id="tt5M5XgNtecoKD3kq0TI-4" value="" style="endArrow=classic;html=1;rounded=0;entryX=0.268;entryY=1.007;entryDx=0;entryDy=0;entryPerimeter=0;" parent="1" target="yXjf_DAoQnlipOI_uSRa-5" edge="1">
          <mxGeometry width="50" height="50" relative="1" as="geometry">
            <mxPoint x="830" y="373" as="sourcePoint" />
            <mxPoint x="840" y="370" as="targetPoint" />
          </mxGeometry>
        </mxCell>
        <mxCell id="8Gte9jZPgztsGGZdeEs2-99" value="" style="ellipse;whiteSpace=wrap;html=1;aspect=fixed;" parent="1" vertex="1">
          <mxGeometry x="511" y="257" width="10" height="10" as="geometry" />
        </mxCell>
        <mxCell id="8Gte9jZPgztsGGZdeEs2-100" value="" style="ellipse;whiteSpace=wrap;html=1;aspect=fixed;" parent="1" vertex="1">
          <mxGeometry x="455" y="259" width="10" height="10" as="geometry" />
        </mxCell>
        <mxCell id="8Gte9jZPgztsGGZdeEs2-101" value="immJump [31:0]" style="text;html=1;align=center;verticalAlign=middle;whiteSpace=wrap;rounded=0;rotation=90;" parent="1" vertex="1">
          <mxGeometry x="340" y="15.25" width="97" height="30" as="geometry" />
        </mxCell>
        <mxCell id="8Gte9jZPgztsGGZdeEs2-102" value="" style="endArrow=classic;html=1;rounded=0;entryX=0.647;entryY=1.023;entryDx=0;entryDy=0;entryPerimeter=0;exitX=0.5;exitY=0;exitDx=0;exitDy=0;" parent="1" source="8Gte9jZPgztsGGZdeEs2-89" target="yXjf_DAoQnlipOI_uSRa-10" edge="1">
          <mxGeometry width="50" height="50" relative="1" as="geometry">
            <mxPoint x="640" y="120" as="sourcePoint" />
            <mxPoint x="690" y="70" as="targetPoint" />
            <Array as="points">
              <mxPoint x="670" y="370" />
              <mxPoint x="660" y="370" />
              <mxPoint x="660" y="270" />
              <mxPoint x="470" y="270" />
              <mxPoint x="470" y="110" />
              <mxPoint x="413" y="110" />
            </Array>
          </mxGeometry>
        </mxCell>
        <mxCell id="8Gte9jZPgztsGGZdeEs2-103" value="regJump [31:0]" style="text;html=1;align=center;verticalAlign=middle;whiteSpace=wrap;rounded=0;rotation=90;" parent="1" vertex="1">
          <mxGeometry x="377" y="16.25" width="97" height="30" as="geometry" />
        </mxCell>
        <mxCell id="8Gte9jZPgztsGGZdeEs2-104" value="" style="endArrow=classic;html=1;rounded=0;exitX=0.25;exitY=0;exitDx=0;exitDy=0;entryX=0.288;entryY=0.971;entryDx=0;entryDy=0;entryPerimeter=0;" parent="1" edge="1">
          <mxGeometry width="50" height="50" relative="1" as="geometry">
            <mxPoint x="453" y="87" as="sourcePoint" />
            <mxPoint x="453" y="-20" as="targetPoint" />
          </mxGeometry>
        </mxCell>
        <mxCell id="8Gte9jZPgztsGGZdeEs2-105" value="doRegJump" style="text;html=1;align=center;verticalAlign=middle;whiteSpace=wrap;rounded=0;rotation=90;" parent="1" vertex="1">
          <mxGeometry x="423.25" y="15.25" width="78.5" height="30" as="geometry" />
        </mxCell>
        <mxCell id="bWer3pY09_kFjaxrSwIU-22" value="addr [31:0]" style="text;html=1;align=center;verticalAlign=middle;whiteSpace=wrap;rounded=0;" parent="1" vertex="1">
          <mxGeometry x="950" y="529" width="60" height="30" as="geometry" />
        </mxCell>
        <mxCell id="Sd08DId_pUGhfi7kBvec-1" value="" style="endArrow=classic;html=1;rounded=0;" parent="1" edge="1">
          <mxGeometry width="50" height="50" relative="1" as="geometry">
            <mxPoint x="650" y="567" as="sourcePoint" />
            <mxPoint x="1020" y="566.8211627906977" as="targetPoint" />
          </mxGeometry>
        </mxCell>
        <mxCell id="bWer3pY09_kFjaxrSwIU-24" value="" style="endArrow=classic;html=1;rounded=0;entryX=-0.006;entryY=0.678;entryDx=0;entryDy=0;entryPerimeter=0;" parent="1" target="yXjf_DAoQnlipOI_uSRa-65" edge="1">
          <mxGeometry width="50" height="50" relative="1" as="geometry">
            <mxPoint x="759" y="550" as="sourcePoint" />
            <mxPoint x="780" y="460" as="targetPoint" />
            <Array as="points">
              <mxPoint x="850" y="550" />
            </Array>
          </mxGeometry>
        </mxCell>
        <mxCell id="Sd08DId_pUGhfi7kBvec-3" value="Reg_Out [31:0]" style="text;html=1;align=center;verticalAlign=middle;whiteSpace=wrap;rounded=0;" parent="1" vertex="1">
          <mxGeometry x="864" y="564" width="85" height="30" as="geometry" />
        </mxCell>
        <mxCell id="yXjf_DAoQnlipOI_uSRa-6" value="&lt;font style=&quot;font-size: 16px;&quot;&gt;&lt;b&gt;Control Unit&lt;/b&gt;&lt;/font&gt;" style="rounded=0;whiteSpace=wrap;html=1;" parent="1" vertex="1">
          <mxGeometry x="340" y="85" width="380" height="75" as="geometry" />
        </mxCell>
        <mxCell id="k5exEUakol7iTXwFMPCD-1" value="" style="ellipse;whiteSpace=wrap;html=1;aspect=fixed;" parent="1" vertex="1">
          <mxGeometry x="755" y="545" width="10" height="10" as="geometry" />
        </mxCell>
        <mxCell id="TBUdOXvlLJJETjnGP0sG-1" value="UART Receiver" style="rounded=0;whiteSpace=wrap;html=1;fillColor=#E6E6E6;" vertex="1" parent="1">
          <mxGeometry x="-480" y="520" width="240" height="197" as="geometry" />
        </mxCell>
        <mxCell id="TBUdOXvlLJJETjnGP0sG-2" value="VGA Encoder" style="rounded=0;whiteSpace=wrap;html=1;fillColor=#E6E6E6;" vertex="1" parent="1">
          <mxGeometry x="-480" y="-440" width="240" height="200" as="geometry" />
        </mxCell>
        <mxCell id="TBUdOXvlLJJETjnGP0sG-3" value="Wishbone Manager" style="rounded=0;whiteSpace=wrap;html=1;fillColor=#E6E6E6;" vertex="1" parent="1">
          <mxGeometry x="-880" width="160" height="240" as="geometry" />
        </mxCell>
        <mxCell id="TBUdOXvlLJJETjnGP0sG-4" value="" style="endArrow=classic;html=1;rounded=0;exitX=-0.003;exitY=0.358;exitDx=0;exitDy=0;exitPerimeter=0;entryX=1.006;entryY=0.139;entryDx=0;entryDy=0;entryPerimeter=0;" edge="1" parent="1">
          <mxGeometry width="50" height="50" relative="1" as="geometry">
            <mxPoint x="-520.96" y="73.88000000000011" as="sourcePoint" />
            <mxPoint x="-720" y="73.67000000000007" as="targetPoint" />
          </mxGeometry>
        </mxCell>
        <mxCell id="TBUdOXvlLJJETjnGP0sG-5" value="ADR [31:0]" style="text;html=1;align=center;verticalAlign=middle;whiteSpace=wrap;rounded=0;" vertex="1" parent="1">
          <mxGeometry x="-679.96" y="52.5" width="90" height="30" as="geometry" />
        </mxCell>
        <mxCell id="TBUdOXvlLJJETjnGP0sG-6" value="" style="endArrow=classic;html=1;rounded=0;exitX=-0.012;exitY=0.439;exitDx=0;exitDy=0;exitPerimeter=0;entryX=1.006;entryY=0.139;entryDx=0;entryDy=0;entryPerimeter=0;" edge="1" parent="1">
          <mxGeometry width="50" height="50" relative="1" as="geometry">
            <mxPoint x="-523.8400000000001" y="103.03999999999996" as="sourcePoint" />
            <mxPoint x="-719.96" y="99.75" as="targetPoint" />
          </mxGeometry>
        </mxCell>
        <mxCell id="TBUdOXvlLJJETjnGP0sG-7" value="DAT_I [31:0]" style="text;html=1;align=center;verticalAlign=middle;whiteSpace=wrap;rounded=0;" vertex="1" parent="1">
          <mxGeometry x="-679.96" y="78.5" width="90" height="30" as="geometry" />
        </mxCell>
        <mxCell id="TBUdOXvlLJJETjnGP0sG-8" value="" style="endArrow=classic;html=1;rounded=0;entryX=1.006;entryY=0.139;entryDx=0;entryDy=0;entryPerimeter=0;" edge="1" parent="1">
          <mxGeometry width="50" height="50" relative="1" as="geometry">
            <mxPoint x="-520" y="124.44438270919" as="sourcePoint" />
            <mxPoint x="-719.96" y="123.75" as="targetPoint" />
          </mxGeometry>
        </mxCell>
        <mxCell id="TBUdOXvlLJJETjnGP0sG-9" value="SEL_I [4:0]" style="text;html=1;align=center;verticalAlign=middle;whiteSpace=wrap;rounded=0;" vertex="1" parent="1">
          <mxGeometry x="-679.96" y="102.5" width="90" height="30" as="geometry" />
        </mxCell>
        <mxCell id="TBUdOXvlLJJETjnGP0sG-10" value="" style="endArrow=classic;html=1;rounded=0;exitX=0;exitY=0.177;exitDx=0;exitDy=0;exitPerimeter=0;entryX=1.006;entryY=0.139;entryDx=0;entryDy=0;entryPerimeter=0;" edge="1" parent="1" source="TBUdOXvlLJJETjnGP0sG-14">
          <mxGeometry width="50" height="50" relative="1" as="geometry">
            <mxPoint x="-562" y="24.75" as="sourcePoint" />
            <mxPoint x="-720" y="23.75" as="targetPoint" />
          </mxGeometry>
        </mxCell>
        <mxCell id="TBUdOXvlLJJETjnGP0sG-11" value="WRITE" style="text;html=1;align=center;verticalAlign=middle;whiteSpace=wrap;rounded=0;" vertex="1" parent="1">
          <mxGeometry x="-680" y="2.5" width="90" height="30" as="geometry" />
        </mxCell>
        <mxCell id="TBUdOXvlLJJETjnGP0sG-12" value="" style="endArrow=classic;html=1;rounded=0;exitX=0;exitY=0.25;exitDx=0;exitDy=0;entryX=1.006;entryY=0.139;entryDx=0;entryDy=0;entryPerimeter=0;" edge="1" parent="1" source="TBUdOXvlLJJETjnGP0sG-14">
          <mxGeometry width="50" height="50" relative="1" as="geometry">
            <mxPoint x="-562" y="50.75" as="sourcePoint" />
            <mxPoint x="-720" y="49.75" as="targetPoint" />
          </mxGeometry>
        </mxCell>
        <mxCell id="TBUdOXvlLJJETjnGP0sG-13" value="READ" style="text;html=1;align=center;verticalAlign=middle;whiteSpace=wrap;rounded=0;" vertex="1" parent="1">
          <mxGeometry x="-680" y="28.5" width="90" height="30" as="geometry" />
        </mxCell>
        <mxCell id="TBUdOXvlLJJETjnGP0sG-14" value="Request Handler" style="rounded=0;whiteSpace=wrap;html=1;fillColor=#E6E6E6;" vertex="1" parent="1">
          <mxGeometry x="-520" y="-40" width="320" height="360" as="geometry" />
        </mxCell>
        <mxCell id="TBUdOXvlLJJETjnGP0sG-15" value="" style="endArrow=classic;html=1;rounded=0;exitX=-0.012;exitY=0.439;exitDx=0;exitDy=0;exitPerimeter=0;entryX=1.006;entryY=0.139;entryDx=0;entryDy=0;entryPerimeter=0;" edge="1" parent="1">
          <mxGeometry width="50" height="50" relative="1" as="geometry">
            <mxPoint x="-718.96" y="188.75" as="sourcePoint" />
            <mxPoint x="-522.8400000000001" y="192.03999999999996" as="targetPoint" />
          </mxGeometry>
        </mxCell>
        <mxCell id="TBUdOXvlLJJETjnGP0sG-16" value="DAT_O [31:0]" style="text;html=1;align=center;verticalAlign=middle;whiteSpace=wrap;rounded=0;" vertex="1" parent="1">
          <mxGeometry x="-678.96" y="167.5" width="90" height="30" as="geometry" />
        </mxCell>
        <mxCell id="TBUdOXvlLJJETjnGP0sG-17" value="" style="endArrow=classic;html=1;rounded=0;entryX=1.006;entryY=0.139;entryDx=0;entryDy=0;entryPerimeter=0;" edge="1" parent="1">
          <mxGeometry width="50" height="50" relative="1" as="geometry">
            <mxPoint x="-718.96" y="212.75" as="sourcePoint" />
            <mxPoint x="-519" y="213.44438270919" as="targetPoint" />
          </mxGeometry>
        </mxCell>
        <mxCell id="TBUdOXvlLJJETjnGP0sG-18" value="BUSY" style="text;html=1;align=center;verticalAlign=middle;whiteSpace=wrap;rounded=0;" vertex="1" parent="1">
          <mxGeometry x="-678.96" y="191.5" width="90" height="30" as="geometry" />
        </mxCell>
        <mxCell id="TBUdOXvlLJJETjnGP0sG-19" value="" style="endArrow=classic;startArrow=classic;html=1;rounded=0;exitX=1;exitY=0.425;exitDx=0;exitDy=0;exitPerimeter=0;entryX=0;entryY=0.5;entryDx=0;entryDy=0;" edge="1" parent="1" source="yXjf_DAoQnlipOI_uSRa-1" target="TBUdOXvlLJJETjnGP0sG-3">
          <mxGeometry width="50" height="50" relative="1" as="geometry">
            <mxPoint x="-490" y="150" as="sourcePoint" />
            <mxPoint x="-440" y="100" as="targetPoint" />
          </mxGeometry>
        </mxCell>
        <mxCell id="TBUdOXvlLJJETjnGP0sG-20" value="" style="endArrow=classic;html=1;rounded=0;exitX=0.067;exitY=1.005;exitDx=0;exitDy=0;exitPerimeter=0;entryX=0.175;entryY=-0.003;entryDx=0;entryDy=0;entryPerimeter=0;" edge="1" parent="1" source="TBUdOXvlLJJETjnGP0sG-2" target="TBUdOXvlLJJETjnGP0sG-14">
          <mxGeometry width="50" height="50" relative="1" as="geometry">
            <mxPoint x="-340" as="sourcePoint" />
            <mxPoint x="-290" y="-50" as="targetPoint" />
          </mxGeometry>
        </mxCell>
        <mxCell id="TBUdOXvlLJJETjnGP0sG-22" value="&lt;h1 style=&quot;margin-top: 0px;&quot;&gt;Note to self&lt;br&gt;&lt;/h1&gt;&lt;p&gt;determine specifics about control cycle later&lt;/p&gt;&lt;p&gt;VGA may not need all signals&lt;br&gt;&lt;/p&gt;" style="text;html=1;whiteSpace=wrap;overflow=hidden;rounded=0;" vertex="1" parent="1">
          <mxGeometry x="-700" y="-310" width="180" height="120" as="geometry" />
        </mxCell>
        <mxCell id="TBUdOXvlLJJETjnGP0sG-23" value="current_client [1:0]" style="text;html=1;align=center;verticalAlign=middle;whiteSpace=wrap;rounded=0;rotation=90;" vertex="1" parent="1">
          <mxGeometry x="-504.5" y="-163" width="103" height="30" as="geometry" />
        </mxCell>
        <mxCell id="TBUdOXvlLJJETjnGP0sG-25" value="" style="endArrow=classic;html=1;rounded=0;exitX=0.067;exitY=1.005;exitDx=0;exitDy=0;exitPerimeter=0;entryX=0.175;entryY=-0.003;entryDx=0;entryDy=0;entryPerimeter=0;" edge="1" parent="1">
          <mxGeometry width="50" height="50" relative="1" as="geometry">
            <mxPoint x="-435" y="-40" as="sourcePoint" />
            <mxPoint x="-435" y="-238" as="targetPoint" />
          </mxGeometry>
        </mxCell>
        <mxCell id="TBUdOXvlLJJETjnGP0sG-26" value="VGA_enable?" style="text;html=1;align=center;verticalAlign=middle;whiteSpace=wrap;rounded=0;rotation=90;" vertex="1" parent="1">
          <mxGeometry x="-475.5" y="-162" width="103" height="30" as="geometry" />
        </mxCell>
        <mxCell id="TBUdOXvlLJJETjnGP0sG-29" value="" style="endArrow=classic;html=1;rounded=0;exitX=0.067;exitY=1.005;exitDx=0;exitDy=0;exitPerimeter=0;entryX=0.175;entryY=-0.003;entryDx=0;entryDy=0;entryPerimeter=0;" edge="1" parent="1">
          <mxGeometry width="50" height="50" relative="1" as="geometry">
            <mxPoint x="-388" y="-239" as="sourcePoint" />
            <mxPoint x="-388" y="-41" as="targetPoint" />
          </mxGeometry>
        </mxCell>
        <mxCell id="TBUdOXvlLJJETjnGP0sG-30" value="write" style="text;html=1;align=center;verticalAlign=middle;whiteSpace=wrap;rounded=0;rotation=90;" vertex="1" parent="1">
          <mxGeometry x="-428.5" y="-163" width="103" height="30" as="geometry" />
        </mxCell>
        <mxCell id="TBUdOXvlLJJETjnGP0sG-33" value="" style="endArrow=classic;html=1;rounded=0;exitX=0.067;exitY=1.005;exitDx=0;exitDy=0;exitPerimeter=0;entryX=0.175;entryY=-0.003;entryDx=0;entryDy=0;entryPerimeter=0;" edge="1" parent="1">
          <mxGeometry width="50" height="50" relative="1" as="geometry">
            <mxPoint x="-364" y="-238" as="sourcePoint" />
            <mxPoint x="-364" y="-40" as="targetPoint" />
          </mxGeometry>
        </mxCell>
        <mxCell id="TBUdOXvlLJJETjnGP0sG-34" value="read" style="text;html=1;align=center;verticalAlign=middle;whiteSpace=wrap;rounded=0;rotation=90;" vertex="1" parent="1">
          <mxGeometry x="-404.5" y="-162" width="103" height="30" as="geometry" />
        </mxCell>
        <mxCell id="TBUdOXvlLJJETjnGP0sG-35" value="" style="endArrow=classic;html=1;rounded=0;exitX=0.067;exitY=1.005;exitDx=0;exitDy=0;exitPerimeter=0;entryX=0.175;entryY=-0.003;entryDx=0;entryDy=0;entryPerimeter=0;" edge="1" parent="1">
          <mxGeometry width="50" height="50" relative="1" as="geometry">
            <mxPoint x="-343" y="-238" as="sourcePoint" />
            <mxPoint x="-343" y="-40" as="targetPoint" />
          </mxGeometry>
        </mxCell>
        <mxCell id="TBUdOXvlLJJETjnGP0sG-36" value="adr [31:0]" style="text;html=1;align=center;verticalAlign=middle;whiteSpace=wrap;rounded=0;rotation=90;" vertex="1" parent="1">
          <mxGeometry x="-383.5" y="-162" width="103" height="30" as="geometry" />
        </mxCell>
        <mxCell id="TBUdOXvlLJJETjnGP0sG-37" value="" style="endArrow=classic;html=1;rounded=0;exitX=0.067;exitY=1.005;exitDx=0;exitDy=0;exitPerimeter=0;entryX=0.175;entryY=-0.003;entryDx=0;entryDy=0;entryPerimeter=0;" edge="1" parent="1">
          <mxGeometry width="50" height="50" relative="1" as="geometry">
            <mxPoint x="-319" y="-237" as="sourcePoint" />
            <mxPoint x="-319" y="-39" as="targetPoint" />
          </mxGeometry>
        </mxCell>
        <mxCell id="TBUdOXvlLJJETjnGP0sG-38" value="data_to_mem [31:0]" style="text;html=1;align=center;verticalAlign=middle;whiteSpace=wrap;rounded=0;rotation=90;" vertex="1" parent="1">
          <mxGeometry x="-362.75" y="-157.75" width="109.5" height="30" as="geometry" />
        </mxCell>
        <mxCell id="TBUdOXvlLJJETjnGP0sG-39" value="" style="endArrow=classic;html=1;rounded=0;exitX=0.067;exitY=1.005;exitDx=0;exitDy=0;exitPerimeter=0;entryX=0.175;entryY=-0.003;entryDx=0;entryDy=0;entryPerimeter=0;" edge="1" parent="1">
          <mxGeometry width="50" height="50" relative="1" as="geometry">
            <mxPoint x="-294" y="-239" as="sourcePoint" />
            <mxPoint x="-294" y="-41" as="targetPoint" />
          </mxGeometry>
        </mxCell>
        <mxCell id="TBUdOXvlLJJETjnGP0sG-40" value="sel [3:0]" style="text;html=1;align=center;verticalAlign=middle;whiteSpace=wrap;rounded=0;rotation=90;" vertex="1" parent="1">
          <mxGeometry x="-334.5" y="-163" width="103" height="30" as="geometry" />
        </mxCell>
        <mxCell id="TBUdOXvlLJJETjnGP0sG-41" value="" style="endArrow=classic;html=1;rounded=0;exitX=0.067;exitY=1.005;exitDx=0;exitDy=0;exitPerimeter=0;entryX=0.175;entryY=-0.003;entryDx=0;entryDy=0;entryPerimeter=0;" edge="1" parent="1">
          <mxGeometry width="50" height="50" relative="1" as="geometry">
            <mxPoint x="-270" y="-40" as="sourcePoint" />
            <mxPoint x="-270" y="-238" as="targetPoint" />
          </mxGeometry>
        </mxCell>
        <mxCell id="TBUdOXvlLJJETjnGP0sG-42" value="data_to_VGA [31:0]" style="text;html=1;align=center;verticalAlign=middle;whiteSpace=wrap;rounded=0;rotation=90;" vertex="1" parent="1">
          <mxGeometry x="-314.25" y="-158.25" width="110.5" height="30" as="geometry" />
        </mxCell>
        <mxCell id="TBUdOXvlLJJETjnGP0sG-45" value="" style="endArrow=classic;html=1;rounded=0;exitX=0.067;exitY=1.005;exitDx=0;exitDy=0;exitPerimeter=0;entryX=0.175;entryY=-0.003;entryDx=0;entryDy=0;entryPerimeter=0;" edge="1" parent="1">
          <mxGeometry width="50" height="50" relative="1" as="geometry">
            <mxPoint x="-448" y="321" as="sourcePoint" />
            <mxPoint x="-448" y="519" as="targetPoint" />
          </mxGeometry>
        </mxCell>
        <mxCell id="TBUdOXvlLJJETjnGP0sG-46" value="UART_Enable" style="text;html=1;align=center;verticalAlign=middle;whiteSpace=wrap;rounded=0;rotation=90;" vertex="1" parent="1">
          <mxGeometry x="-488.5" y="397" width="103" height="30" as="geometry" />
        </mxCell>
        <mxCell id="TBUdOXvlLJJETjnGP0sG-47" value="" style="endArrow=classic;html=1;rounded=0;exitX=0.067;exitY=1.005;exitDx=0;exitDy=0;exitPerimeter=0;entryX=0.175;entryY=-0.003;entryDx=0;entryDy=0;entryPerimeter=0;" edge="1" parent="1">
          <mxGeometry width="50" height="50" relative="1" as="geometry">
            <mxPoint x="-378" y="518" as="sourcePoint" />
            <mxPoint x="-378" y="320" as="targetPoint" />
          </mxGeometry>
        </mxCell>
        <mxCell id="TBUdOXvlLJJETjnGP0sG-48" value="write" style="text;html=1;align=center;verticalAlign=middle;whiteSpace=wrap;rounded=0;rotation=90;" vertex="1" parent="1">
          <mxGeometry x="-418.5" y="396" width="103" height="30" as="geometry" />
        </mxCell>
        <mxCell id="TBUdOXvlLJJETjnGP0sG-49" value="" style="endArrow=classic;html=1;rounded=0;entryX=0.175;entryY=-0.003;entryDx=0;entryDy=0;entryPerimeter=0;" edge="1" parent="1">
          <mxGeometry width="50" height="50" relative="1" as="geometry">
            <mxPoint x="-354" y="490" as="sourcePoint" />
            <mxPoint x="-354" y="321" as="targetPoint" />
          </mxGeometry>
        </mxCell>
        <mxCell id="TBUdOXvlLJJETjnGP0sG-50" value="read" style="text;html=1;align=center;verticalAlign=middle;whiteSpace=wrap;rounded=0;rotation=90;" vertex="1" parent="1">
          <mxGeometry x="-394.5" y="397" width="103" height="30" as="geometry" />
        </mxCell>
        <mxCell id="TBUdOXvlLJJETjnGP0sG-51" value="" style="endArrow=classic;html=1;rounded=0;exitX=0.067;exitY=1.005;exitDx=0;exitDy=0;exitPerimeter=0;entryX=0.175;entryY=-0.003;entryDx=0;entryDy=0;entryPerimeter=0;" edge="1" parent="1">
          <mxGeometry width="50" height="50" relative="1" as="geometry">
            <mxPoint x="-333" y="519" as="sourcePoint" />
            <mxPoint x="-333" y="321" as="targetPoint" />
          </mxGeometry>
        </mxCell>
        <mxCell id="TBUdOXvlLJJETjnGP0sG-52" value="adr [31:0]" style="text;html=1;align=center;verticalAlign=middle;whiteSpace=wrap;rounded=0;rotation=90;" vertex="1" parent="1">
          <mxGeometry x="-373.5" y="397" width="103" height="30" as="geometry" />
        </mxCell>
        <mxCell id="TBUdOXvlLJJETjnGP0sG-53" value="" style="endArrow=classic;html=1;rounded=0;exitX=0.067;exitY=1.005;exitDx=0;exitDy=0;exitPerimeter=0;entryX=0.175;entryY=-0.003;entryDx=0;entryDy=0;entryPerimeter=0;" edge="1" parent="1">
          <mxGeometry width="50" height="50" relative="1" as="geometry">
            <mxPoint x="-309" y="520" as="sourcePoint" />
            <mxPoint x="-309" y="322" as="targetPoint" />
          </mxGeometry>
        </mxCell>
        <mxCell id="TBUdOXvlLJJETjnGP0sG-54" value="data_to_mem [31:0]" style="text;html=1;align=center;verticalAlign=middle;whiteSpace=wrap;rounded=0;rotation=90;" vertex="1" parent="1">
          <mxGeometry x="-352.75" y="401.25" width="109.5" height="30" as="geometry" />
        </mxCell>
        <mxCell id="TBUdOXvlLJJETjnGP0sG-55" value="" style="endArrow=classic;html=1;rounded=0;exitX=0.067;exitY=1.005;exitDx=0;exitDy=0;exitPerimeter=0;entryX=0.175;entryY=-0.003;entryDx=0;entryDy=0;entryPerimeter=0;" edge="1" parent="1">
          <mxGeometry width="50" height="50" relative="1" as="geometry">
            <mxPoint x="-284" y="518" as="sourcePoint" />
            <mxPoint x="-284" y="320" as="targetPoint" />
          </mxGeometry>
        </mxCell>
        <mxCell id="TBUdOXvlLJJETjnGP0sG-56" value="sel [3:0]" style="text;html=1;align=center;verticalAlign=middle;whiteSpace=wrap;rounded=0;rotation=90;" vertex="1" parent="1">
          <mxGeometry x="-324.5" y="396" width="103" height="30" as="geometry" />
        </mxCell>
        <mxCell id="TBUdOXvlLJJETjnGP0sG-57" value="" style="endArrow=classic;html=1;rounded=0;exitX=0.067;exitY=1.005;exitDx=0;exitDy=0;exitPerimeter=0;entryX=0.5;entryY=0;entryDx=0;entryDy=0;" edge="1" parent="1" target="TBUdOXvlLJJETjnGP0sG-61">
          <mxGeometry width="50" height="50" relative="1" as="geometry">
            <mxPoint x="-260" y="321" as="sourcePoint" />
            <mxPoint x="-260" y="480" as="targetPoint" />
          </mxGeometry>
        </mxCell>
        <mxCell id="TBUdOXvlLJJETjnGP0sG-58" value="data_to_UART [31:0]" style="text;html=1;align=center;verticalAlign=middle;whiteSpace=wrap;rounded=0;rotation=90;" vertex="1" parent="1">
          <mxGeometry x="-306.12" y="402.63" width="114.25" height="30" as="geometry" />
        </mxCell>
        <mxCell id="TBUdOXvlLJJETjnGP0sG-60" value="" style="ellipse;whiteSpace=wrap;html=1;aspect=fixed;" vertex="1" parent="1">
          <mxGeometry x="-359" y="487" width="10" height="10" as="geometry" />
        </mxCell>
        <mxCell id="TBUdOXvlLJJETjnGP0sG-61" value="" style="ellipse;whiteSpace=wrap;html=1;aspect=fixed;" vertex="1" parent="1">
          <mxGeometry x="-266" y="488" width="10" height="10" as="geometry" />
        </mxCell>
        <mxCell id="TBUdOXvlLJJETjnGP0sG-62" value="&lt;h1 style=&quot;margin-top: 0px;&quot;&gt;Note to self&lt;br&gt;&lt;/h1&gt;&lt;p&gt;Determine specifics of connections between Request handler and CPU later&lt;br&gt;&lt;/p&gt;" style="text;html=1;whiteSpace=wrap;overflow=hidden;rounded=0;" vertex="1" parent="1">
          <mxGeometry x="-160" y="93" width="180" height="120" as="geometry" />
        </mxCell>
      </root>
    </mxGraphModel>
  </diagram>
</mxfile>
